<?xml version="1.0" standalone="no"?>
<!DOCTYPE svg PUBLIC "-//W3C//DTD SVG 20010904//EN"
 "http://www.w3.org/TR/2001/REC-SVG-20010904/DTD/svg10.dtd">
<svg version="1.0" xmlns="http://www.w3.org/2000/svg"
 width="300.000000pt" height="295.000000pt" viewBox="0 0 300.000000 295.000000"
 preserveAspectRatio="xMidYMid meet">
<metadata>
Created by potrace 1.10, written by Peter Selinger 2001-2011
</metadata>
<g transform="translate(0.000000,295.000000) scale(0.100000,-0.100000)"
fill="#000000" stroke="none">
<path d="M132 2724 c-36 -25 -27 -57 45 -151 37 -48 264 -345 505 -660 241
-315 438 -578 438 -586 0 -7 -213 -257 -474 -554 -260 -298 -476 -549 -480
-558 -3 -10 0 -28 8 -41 20 -29 93 -37 295 -33 l150 4 32 30 c17 17 120 131
227 255 108 124 199 227 202 230 3 3 70 78 148 167 79 90 147 163 152 163 5 0
73 -84 152 -187 412 -539 465 -607 493 -633 l27 -25 406 0 c224 0 419 3 433 7
14 4 31 19 37 32 15 33 90 -71 -689 955 -281 370 -358 477 -359 491 0 9 72 99
161 200 88 102 184 212 212 244 29 33 57 64 62 70 6 6 77 88 159 181 82 94
174 199 205 234 98 111 109 137 69 165 -19 13 -58 16 -224 16 l-202 0 -31 -26
c-17 -14 -171 -185 -341 -380 -171 -194 -316 -356 -322 -360 -14 -9 -1 -24
-310 384 -139 184 -265 344 -281 358 l-29 24 -427 0 c-370 0 -430 -2 -449 -16z
m969 -142 c188 -255 511 -677 518 -677 4 0 164 179 356 398 l347 397 214 0
214 0 -458 -521 c-251 -286 -461 -526 -466 -534 -9 -12 96 -154 897 -1209 103
-136 187 -249 185 -250 -2 0 -195 0 -430 2 l-427 2 -331 433 c-182 237 -335
432 -339 432 -4 0 -178 -194 -386 -432 l-378 -432 -211 -3 c-116 -2 -213 -2
-215 -1 -1 1 217 252 485 558 269 306 493 562 498 569 6 9 -18 48 -76 122 -47
60 -255 332 -463 604 -208 272 -407 532 -443 578 l-64 82 444 -1 443 0 86
-117z"/>
<path d="M630 2451 c0 -3 11 -16 24 -30 13 -15 149 -190 303 -391 153 -201
489 -641 747 -977 l469 -613 118 0 118 0 -214 282 c-118 156 -461 609 -762
1006 l-548 724 -127 2 c-71 1 -128 0 -128 -3z m323 -153 c46 -62 209 -277 361
-478 152 -201 363 -480 469 -620 105 -140 266 -351 356 -470 90 -118 164 -222
165 -230 1 -18 -66 -26 -102 -13 -18 7 -250 305 -921 1183 -52 69 -198 259
-323 423 -125 163 -228 302 -228 307 0 6 30 10 69 10 l69 0 85 -112z"/>
</g>
</svg>
